<svg xmlns="http://www.w3.org/2000/svg" viewBox="0 0 45 53.43"><defs><style>.cls-1,.cls-2,.cls-3{fill:none;stroke-miterlimit:10;}.cls-1{stroke:#7792bc;stroke-width:5px;}.cls-2,.cls-3{stroke:#cf7b56;}.cls-2{stroke-linecap:round;stroke-width:3px;}.cls-3{stroke-width:2px;}</style></defs><title>diabetes_logo</title><g id="Livello_1" data-name="Livello 1"><path class="cls-1" d="M70,60A20,20,0,0,1,48.78,80c-10-.59-18.7-9.77-18.78-19.79a20.2,20.2,0,0,1,.61-5.08,18.34,18.34,0,0,1,4.08-7.51l13.05-15a3,3,0,0,1,4.52,0l13,14.91a18.75,18.75,0,0,1,4.46,9.1A19.88,19.88,0,0,1,70,60Z" transform="translate(-27.5 -29.07)"/></g><g id="Livello_2" data-name="Livello 2"><line class="cls-2" x1="15" y1="38.43" x2="30" y2="23.43"/><circle class="cls-3" cx="17.5" cy="25.93" r="2.5"/><circle class="cls-3" cx="27.5" cy="35.93" r="2.5"/></g></svg>